# xmcd
#
# Track frame offsets: 
#        182
#        11765
#        25465
#        42600
#        57350
#        69397
#        81690
#        94535
#        109205
#        119665
#        131240
#        143415
#        157272
#        169377
#        185672
#        202705
#        213922
#        224485
#        237162
#        248805
#
# Disc length: 3601 seconds
#
# Revision: 2
# Processed by: cddbd v1.5.2PL0 Copyright (c) Steve Scherf et al.
# Submitted via: ExactAudioCopy v0.99pb3
#
DISCID=340e0f14
DTITLE=B B King - B B King . King Of The Blues (comp) (1994)
DYEAR=1994
DGENRE=Blues
TTITLE0=Early Every Morning
TTITLE1=Sweet Little Angel
TTITLE2=Three O'Clock Blues
TTITLE3=Ain't That Just Like A Woman
TTITLE4=Dark Is The Night (part one)
TTITLE5=Dark Is The Night (part two)
TTITLE6=Rock Me Baby
TTITLE7=I've Got A Right (To Love My Baby)
TTITLE8=Bad Luck Soul
TTITLE9=Did You Ever Love A Woman
TTITLE10=King Of Guitar
TTITLE11=You Upset Me Baby
TTITLE12=Get Out Of Here
TTITLE13=Troubles, Troubles, Troubles
TTITLE14=Sweet Sixteen (part one)
TTITLE15=Sweet Sixteen (part two)
TTITLE16=That Ain't The Way Tto Do It
TTITLE17=Ten Long Years
TTITLE18=Powerhouse
TTITLE19=Going Down Slowly
EXTD=YEAR: 1994 ID3G:   0
EXTT0=
EXTT1=
EXTT2=
EXTT3=
EXTT4=
EXTT5=
EXTT6=
EXTT7=
EXTT8=
EXTT9=
EXTT10=
EXTT11=
EXTT12=
EXTT13=
EXTT14=
EXTT15=
EXTT16=
EXTT17=
EXTT18=
EXTT19=
PLAYORDER=
